<svg xmlns="http://www.w3.org/2000/svg" xmlns:xlink="http://www.w3.org/1999/xlink" width="100" height="100" viewBox="0 0 100 100"><defs><clipPath id="b"><rect width="100" height="100"/></clipPath></defs><g id="a" clip-path="url(#b)"><path d="M49.5,100a48.77,48.77,0,0,1-19.268-3.929A49.309,49.309,0,0,1,14.5,85.356a50.286,50.286,0,0,1,0-70.711A49.312,49.312,0,0,1,30.233,3.929a49.206,49.206,0,0,1,38.535,0A49.311,49.311,0,0,1,84.5,14.645a50.288,50.288,0,0,1,0,70.711A49.308,49.308,0,0,1,68.768,96.071,48.765,48.765,0,0,1,49.5,100ZM41.854,66.213c9.862,0,18.646,2.336,26.106,6.942A3.062,3.062,0,0,0,72.2,72.119a3.127,3.127,0,0,0,.367-2.358,3.091,3.091,0,0,0-1.39-1.928c-8.448-5.214-18.3-7.858-29.28-7.858A84.02,84.02,0,0,0,23.1,62.26a3.062,3.062,0,0,0-1.926,1.378,3.121,3.121,0,0,0-.394,2.353,3.07,3.07,0,0,0,3.694,2.342A77.783,77.783,0,0,1,41.854,66.213Zm-.772-14.726h0c11.758,0,23.373,3.025,31.867,8.3A3.833,3.833,0,0,0,78.258,58.5a3.924,3.924,0,0,0-1.27-5.359A61.253,61.253,0,0,0,60.156,46.08,74.948,74.948,0,0,0,41.19,43.662,67.559,67.559,0,0,0,21.382,46.5a3.917,3.917,0,0,0-2.573,4.862,3.846,3.846,0,0,0,4.815,2.6A59.569,59.569,0,0,1,41.081,51.487ZM42.255,35.8h0c14.177,0,27.49,3.108,36.526,8.528a4.573,4.573,0,0,0,2.356.657,4.686,4.686,0,0,0,2.37-8.7c-10.422-6.25-25.465-9.834-41.273-9.834a83.523,83.523,0,0,0-23.649,3.144,4.684,4.684,0,0,0,1.343,9.154,4.591,4.591,0,0,0,1.346-.2A74.24,74.24,0,0,1,42.255,35.8Z" fill="#fff"/></g></svg>
